<svg width="512" height="512" viewBox="0 0 512 512" fill="none" xmlns="http://www.w3.org/2000/svg">
  <defs>
    <linearGradient id="bg2" x1="70" y1="60" x2="460" y2="470" gradientUnits="userSpaceOnUse">
      <stop stop-color="#0F172A"/>
      <stop offset="1" stop-color="#1E293B"/>
    </linearGradient>
    <linearGradient id="teal2" x1="170" y1="150" x2="360" y2="360" gradientUnits="userSpaceOnUse">
      <stop stop-color="#99F6E4"/>
      <stop offset="1" stop-color="#14B8A6"/>
    </linearGradient>
  </defs>
  <rect x="32" y="32" width="448" height="448" rx="110" fill="url(#bg2)"/>
  <circle cx="256" cy="256" r="148" fill="#0B1220" stroke="#334155" stroke-width="12"/>
  <path d="M192 256C192 220.654 220.654 192 256 192C291.346 192 320 220.654 320 256" stroke="url(#teal2)" stroke-width="20" stroke-linecap="round"/>
  <path d="M220 292C220 272.118 236.118 256 256 256C275.882 256 292 272.118 292 292" stroke="url(#teal2)" stroke-width="16" stroke-linecap="round"/>
  <circle cx="202" cy="214" r="10" fill="#5EEAD4"/>
  <circle cx="310" cy="214" r="10" fill="#5EEAD4"/>
  <path d="M176 338L218 320L236 362L176 338Z" fill="#5EEAD4"/>
  <path d="M336 338L294 320L276 362L336 338Z" fill="#5EEAD4"/>
  <rect x="236" y="322" width="40" height="68" rx="20" fill="url(#teal2)"/>
</svg>
